<svg width="800" height="800" viewBox="0 0 800 800" fill="none" xmlns="http://www.w3.org/2000/svg">
<path d="M420.657 799.075C188.712 799.075 -1.52588e-05 610.379 -1.52588e-05 378.435C-1.52588e-05 217.792 89.4255 73.4555 233.392 1.76694C239.87 -1.44726 247.662 -0.201972 252.761 4.897C257.86 9.99597 259.172 17.7875 255.992 24.2495C229.723 77.6289 216.412 135.013 216.412 194.771C216.412 408.17 390.012 581.771 603.412 581.771C663.826 581.771 721.765 568.157 775.666 541.332C782.162 538.118 789.937 539.363 795.036 544.462C800.152 549.561 801.447 557.353 798.267 563.815C726.915 708.908 582.208 799.075 420.657 799.075ZM206.113 56.2906C98.6474 127.575 33.6566 247.073 33.6566 378.435C33.6566 591.817 207.257 765.418 420.657 765.418C552.826 765.418 672.761 699.821 743.878 591.363C698.98 607.35 651.928 615.427 603.429 615.427C371.485 615.427 182.772 426.715 182.772 194.771C182.772 146.978 190.614 100.599 206.113 56.2906Z" fill="white"/>
</svg>
